<svg width="11" height="6" viewBox="0 0 11 6" fill="none" xmlns="http://www.w3.org/2000/svg">
<path d="M5.50214 5.64846C5.33521 5.64879 5.17343 5.59016 5.04488 5.48275L0.758102 1.88021C0.612196 1.75791 0.520442 1.58217 0.503023 1.39165C0.485605 1.20112 0.543949 1.01143 0.665221 0.864289C0.786493 0.717149 0.960759 0.624619 1.14968 0.607053C1.33861 0.589487 1.52671 0.648325 1.67262 0.770623L5.50214 3.9985L9.33167 0.885905C9.40475 0.826055 9.48884 0.781361 9.5791 0.754391C9.66937 0.727421 9.76403 0.718707 9.85764 0.72875C9.95126 0.738794 10.042 0.767396 10.1246 0.812913C10.2072 0.85843 10.2801 0.919965 10.3391 0.993981C10.4045 1.06806 10.454 1.15498 10.4846 1.24927C10.5152 1.34357 10.5261 1.44321 10.5167 1.54197C10.5073 1.64073 10.4778 1.73646 10.4301 1.82318C10.3823 1.9099 10.3172 1.98573 10.239 2.04592L5.95225 5.52598C5.82002 5.61641 5.66154 5.65954 5.50214 5.64846Z" fill="#6F6E6E"/>
</svg>
