<svg width="27" height="25" viewBox="0 0 27 25" fill="none" xmlns="http://www.w3.org/2000/svg">
<path d="M5.99847 22.185C6.00635 21.752 6.14091 21.3309 6.38519 20.9748C6.62947 20.6186 6.97261 20.3431 7.37158 20.1828C7.77055 20.0226 8.2076 19.9848 8.62781 20.0741C9.04802 20.1635 9.43269 20.376 9.73358 20.685C10.0345 20.994 10.2382 21.3857 10.3191 21.811C10.4 22.2363 10.3545 22.6763 10.1884 23.0756C10.0223 23.475 9.74296 23.8161 9.38538 24.0559C9.02779 24.2957 8.60791 24.4237 8.17847 24.4237C7.88955 24.4211 7.60399 24.3611 7.33807 24.2472C7.07216 24.1333 6.8311 23.9676 6.62866 23.7597C6.42623 23.5518 6.26639 23.3057 6.15826 23.0355C6.05013 22.7653 5.99584 22.4763 5.99847 22.185ZM21.8045 24.4237C21.3711 24.4303 20.9453 24.3087 20.5797 24.074C20.2141 23.8393 19.9247 23.5017 19.7471 23.103C19.5696 22.7042 19.5117 22.2618 19.5806 21.8303C19.6496 21.3988 19.8423 20.9971 20.1351 20.6748C20.4278 20.3524 20.8077 20.1236 21.228 20.0165C21.6482 19.9095 22.0903 19.929 22.4997 20.0724C22.9091 20.2159 23.2679 20.4771 23.5317 20.8238C23.7956 21.1706 23.953 21.5877 23.9845 22.0236C24.0269 22.6155 23.8369 23.2004 23.4555 23.6523C23.2706 23.8745 23.0436 24.0574 22.7877 24.1901C22.5319 24.3227 22.2524 24.4025 21.9655 24.4247L21.8045 24.4237ZM9.09351 17.4855C8.88116 17.4851 8.67488 17.414 8.50671 17.2833C8.33855 17.1525 8.21792 16.9694 8.16351 16.7624L4.23651 2.19527H1.47852C1.219 2.19527 0.970064 2.09128 0.78656 1.90622C0.603056 1.72116 0.5 1.47018 0.5 1.20847C0.5 0.946764 0.603056 0.695782 0.78656 0.510726C0.970064 0.325669 1.219 0.22168 1.47852 0.22168H4.95752C5.16982 0.222254 5.376 0.293463 5.54413 0.424184C5.71226 0.554905 5.83295 0.737883 5.88751 0.944787L9.81451 15.5119H20.5185L24.0765 7.12665H12.2185C11.959 7.12665 11.7101 7.02266 11.5266 6.83761C11.3431 6.65255 11.24 6.40157 11.24 6.13986C11.24 5.87815 11.3431 5.62717 11.5266 5.44211C11.7101 5.25705 11.959 5.15306 12.2185 5.15306H25.5535C25.7131 5.15352 25.8701 5.19451 26.0099 5.27223C26.1497 5.34995 26.2679 5.46195 26.3535 5.59784C26.4413 5.73569 26.4945 5.89303 26.5084 6.05627C26.5224 6.21951 26.4966 6.38368 26.4335 6.53465L22.0425 16.8935C21.969 17.0684 21.8462 17.2177 21.6895 17.3229C21.5327 17.4281 21.3488 17.4846 21.1605 17.4855H9.09351Z" fill="#EF5B70"/>
</svg>
